<svg width="512" height="512" viewBox="0 0 512 512" fill="none" xmlns="http://www.w3.org/2000/svg">
  <rect width="512" height="512" rx="80" fill="#1a2744"/>
  <path fill="#4eca8b" d="
    M 340 80
    C 362 80, 380 98, 380 120
    L 380 320
    C 380 386, 326 440, 260 440
    L 200 440
    C 156 440, 120 404, 120 360
    C 120 316, 156 280, 200 280
    C 222 280, 240 298, 240 320
    C 240 342, 258 360, 280 360
    C 302 360, 320 342, 320 320
    L 320 120
    C 320 98, 338 80, 340 80
    Z
  "/>
</svg>
